<svg width="20" height="20" viewBox="0 0 20 20" fill="none" xmlns="http://www.w3.org/2000/svg">
<path d="M10 13.5C9.54471 13.5 9.08994 13.3245 8.74524 12.9798L3.3119 7.54642C3.29038 7.52489 3.2771 7.49416 3.2771 7.4583C3.2771 7.42245 3.29038 7.39172 3.3119 7.37019C3.33343 7.34866 3.36417 7.33539 3.40002 7.33539C3.43587 7.33539 3.4666 7.34866 3.48813 7.37019L8.92146 12.8035C9.51673 13.3988 10.4833 13.3988 11.0786 12.8035L16.5119 7.37019C16.5334 7.34866 16.5642 7.33539 16.6 7.33539C16.6359 7.33539 16.6666 7.34866 16.6881 7.37019C16.7097 7.39172 16.7229 7.42245 16.7229 7.4583C16.7229 7.49416 16.7097 7.52489 16.6881 7.54642L11.2548 12.9798C10.9101 13.3245 10.4553 13.5 10 13.5Z" fill="#292D32" stroke="#2E3A59"/>
</svg>
